# 3ds Max Wavefront OBJ Exporter v0.97b - (c)2007 guruware
# File Created: 24.10.2012 12:39:44

#
# object Cylinder238
#

v  34.2420 6.9399 -34.2419
v  34.2420 83.6369 -34.2419
v  48.4255 83.6369 -0.0001
v  48.4255 6.9399 -0.0001
v  -0.0000 6.9399 -48.4255
v  -0.0000 83.6369 -48.4255
v  -34.2420 6.9399 -34.2420
v  -34.2420 83.6369 -34.2420
v  -48.4255 6.9399 0.0000
v  -48.4255 83.6369 0.0000
v  -34.2420 6.9399 34.2420
v  -34.2420 83.6369 34.2420
v  0.0000 6.9399 48.4255
v  0.0000 83.6369 48.4255
v  34.2420 6.9399 34.2420
v  34.2420 83.6369 34.2420
v  0.0000 0.0000 46.0750
v  -32.5800 0.0000 32.5800
v  -46.0750 0.0000 0.0000
v  -32.5800 0.0000 -32.5800
v  -0.0000 0.0000 -46.0750
v  32.5800 0.0000 -32.5800
v  46.0750 0.0000 -0.0000
v  32.5800 0.0000 32.5800
v  26.3085 125.0000 -26.3085
v  0.0000 125.0000 -37.2059
v  -26.3085 125.0000 -26.3085
v  -37.2059 125.0000 0.0000
v  -26.3085 125.0000 26.3086
v  0.0000 125.0000 37.2059
v  26.3085 125.0000 26.3086
v  37.2059 125.0000 -0.0000
v  34.2420 109.8661 -34.2419
v  48.4255 109.8661 -0.0001
v  48.4255 92.3105 -0.0000
v  34.2420 92.3105 -34.2420
v  -0.0000 109.8661 -48.4255
v  -0.0000 92.3105 -48.4255
v  -34.2420 109.8661 -34.2420
v  -34.2420 92.3105 -34.2420
v  -48.4255 109.8661 0.0000
v  -48.4255 92.3105 0.0000
v  -34.2420 109.8661 34.2420
v  -34.2420 92.3105 34.2420
v  0.0000 109.8661 48.4255
v  0.0000 92.3105 48.4255
v  34.2420 109.8661 34.2420
v  34.2420 92.3105 34.2420
v  34.4585 87.9689 -34.4585
v  48.7316 87.9689 -0.0000
v  50.0000 86.9506 -0.0000
v  35.3553 86.9506 -35.3553
v  -0.0000 87.9689 -48.7316
v  -0.0000 86.9506 -50.0000
v  -34.4585 87.9689 -34.4585
v  -35.3553 86.9506 -35.3553
v  -48.7316 87.9689 0.0000
v  -50.0000 86.9506 0.0000
v  -34.4585 87.9689 34.4585
v  -35.3553 86.9506 35.3553
v  0.0000 87.9689 48.7316
v  0.0000 86.9506 50.0000
v  34.4585 87.9689 34.4585
v  35.3553 86.9506 35.3553
v  35.3553 88.9968 -35.3553
v  50.0000 88.9968 -0.0000
v  -0.0000 88.9968 -50.0000
v  -35.3553 88.9968 -35.3553
v  -50.0000 88.9968 0.0000
v  -35.3553 88.9968 35.3553
v  0.0000 88.9968 50.0000
v  35.3553 88.9968 35.3553
v  46.8015 122.0450 -0.0000
v  50.0000 113.1798 -0.0000
v  35.3553 113.1798 -35.3553
v  33.0936 122.0450 -33.0936
v  -0.0000 113.1798 -50.0000
v  -0.0000 122.0450 -46.8015
v  -35.3553 113.1798 -35.3553
v  -33.0936 122.0450 -33.0936
v  -50.0000 113.1798 0.0000
v  -46.8015 122.0450 0.0000
v  -35.3553 113.1798 35.3553
v  -33.0936 122.0450 33.0936
v  0.0000 113.1798 50.0000
v  0.0000 122.0450 46.8015
v  35.3553 113.1798 35.3553
v  33.0936 122.0450 33.0936
v  50.0000 3.6262 -0.0000
v  35.3553 3.6262 -35.3553
v  -0.0000 3.6262 -50.0000
v  -35.3553 3.6262 -35.3553
v  -50.0000 3.6262 0.0000
v  -35.3553 3.6262 35.3553
v  0.0000 3.6262 50.0000
v  35.3553 3.6262 35.3553
# 96 vertices

vn 0.9239 0.0000 -0.3827
vn 0.3827 0.0000 -0.9239
vn -0.3827 0.0000 -0.9239
vn -0.9239 0.0000 -0.3827
vn -0.9239 0.0000 0.3827
vn -0.3827 0.0000 0.9239
vn 0.3827 0.0000 0.9239
vn 0.9239 0.0000 0.3827
vn 0.0000 -1.0000 -0.0000
vn 0.0000 1.0000 -0.0000
vn 0.9239 -0.0000 -0.3827
vn -0.9239 -0.0000 -0.3827
vn -0.9239 -0.0000 0.3827
vn -0.3827 -0.0000 0.9239
vn 0.6060 0.7548 -0.2510
vn 0.2510 0.7548 -0.6060
vn -0.2510 0.7548 -0.6060
vn -0.6060 0.7548 -0.2510
vn -0.6060 0.7548 0.2510
vn -0.2510 0.7548 0.6060
vn 0.2510 0.7548 0.6060
vn 0.6060 0.7548 0.2510
vn 0.6092 -0.7518 -0.2524
vn 0.2524 -0.7518 -0.6092
vn -0.2524 -0.7518 -0.6092
vn -0.6092 -0.7518 -0.2524
vn -0.6092 -0.7518 0.2524
vn -0.2524 -0.7518 0.6092
vn 0.2524 -0.7518 0.6092
vn 0.6092 -0.7518 0.2524
vn 0.8765 0.3162 -0.3630
vn 0.3630 0.3162 -0.8765
vn -0.3630 0.3162 -0.8765
vn -0.8765 0.3162 -0.3630
vn -0.8765 0.3162 0.3630
vn -0.3630 0.3162 0.8765
vn 0.3630 0.3162 0.8765
vn 0.8765 0.3162 0.3630
vn 0.2922 0.9487 -0.1210
vn 0.1210 0.9487 -0.2922
vn -0.1210 0.9487 -0.2922
vn -0.2922 0.9487 -0.1210
vn -0.2922 0.9487 0.1210
vn -0.1210 0.9487 0.2922
vn 0.1210 0.9487 0.2922
vn 0.2922 0.9487 0.1210
vn 0.6533 -0.7071 -0.2706
vn 0.2706 -0.7071 -0.6533
vn -0.2706 -0.7071 -0.6533
vn -0.6533 -0.7071 -0.2706
vn -0.6533 -0.7071 0.2706
vn -0.2706 -0.7071 0.6533
vn 0.2706 -0.7071 0.6533
vn 0.6533 -0.7071 0.2706
vn 0.8460 0.4020 -0.3504
vn 0.3504 0.4020 -0.8460
vn -0.3504 0.4020 -0.8460
vn -0.8460 0.4020 -0.3504
vn -0.8460 0.4020 0.3504
vn -0.3504 0.4020 0.8460
vn 0.3504 0.4020 0.8460
vn 0.8460 0.4020 0.3504
vn 0.8460 -0.4020 -0.3504
vn 0.8460 -0.4020 0.3504
vn 0.3504 -0.4020 0.8460
vn -0.3504 -0.4020 0.8460
vn -0.8460 -0.4020 0.3504
vn -0.8460 -0.4020 -0.3504
vn -0.3504 -0.4020 -0.8460
vn 0.3504 -0.4020 -0.8460
# 70 vertex normals

vt 0.8750 0.0203 1.0000
vt 0.8750 0.4879 1.0000
vt 0.7500 0.4879 1.0000
vt 0.7500 0.0203 1.0000
vt 1.0000 0.0203 1.0000
vt 1.0000 0.4879 1.0000
vt 0.1250 0.0203 1.0000
vt 0.1250 0.4879 1.0000
vt 0.0000 0.4879 1.0000
vt 0.0000 0.0203 1.0000
vt 0.2500 0.0203 1.0000
vt 0.2500 0.4879 1.0000
vt 0.3750 0.0203 1.0000
vt 0.3750 0.4879 1.0000
vt 0.5000 0.0203 1.0000
vt 0.5000 0.4879 1.0000
vt 0.6250 0.0203 1.0000
vt 0.6250 0.4879 1.0000
vt 0.9608 0.5000 -0.2500
vt 0.8258 0.1742 -0.2500
vt 0.5000 0.0392 -0.2500
vt 0.1742 0.1742 -0.2500
vt 0.0392 0.5000 -0.2500
vt 0.1742 0.8258 -0.2500
vt 0.5000 0.9608 -0.2500
vt 0.8258 0.8258 -0.2500
vt 0.2369 0.7631 0.2500
vt 0.1279 0.5000 0.2500
vt 0.2369 0.2369 0.2500
vt 0.5000 0.1279 0.2500
vt 0.7631 0.2369 0.2500
vt 0.8721 0.5000 0.2500
vt 0.7631 0.7631 0.2500
vt 0.5000 0.8721 0.2500
vt 0.8750 0.8452 1.0000
vt 0.7500 0.8452 1.0000
vt 0.7500 0.5286 1.0000
vt 0.8750 0.5286 1.0000
vt 1.0000 0.8452 1.0000
vt 1.0000 0.5286 1.0000
vt 0.1250 0.8452 1.0000
vt 0.0000 0.8452 1.0000
vt 0.0000 0.5286 1.0000
vt 0.1250 0.5286 1.0000
vt 0.2500 0.8452 1.0000
vt 0.2500 0.5286 1.0000
vt 0.3750 0.8452 1.0000
vt 0.3750 0.5286 1.0000
vt 0.5000 0.8452 1.0000
vt 0.5000 0.5286 1.0000
vt 0.6250 0.8452 1.0000
vt 0.6250 0.5286 1.0000
vt 0.8750 0.5083 1.0000
vt 0.7500 0.5083 1.0000
vt 1.0000 0.5083 1.0000
vt 0.1250 0.5083 1.0000
vt 0.0000 0.5083 1.0000
vt 0.2500 0.5083 1.0000
vt 0.3750 0.5083 1.0000
vt 0.5000 0.5083 1.0000
vt 0.6250 0.5083 1.0000
vt 0.4905 0.9589 0.2500
vt 0.4810 1.0458 0.2500
vt 0.1275 0.8994 0.2500
vt 0.1822 0.8312 0.2500
vt 0.1688 0.8178 0.2500
vt 0.1006 0.8725 0.2500
vt -0.0458 0.5190 0.2500
vt 0.0411 0.5095 0.2500
vt 0.0411 0.4905 0.2500
vt -0.0458 0.4810 0.2500
vt 0.1006 0.1275 0.2500
vt 0.1688 0.1822 0.2500
vt 0.1822 0.1688 0.2500
vt 0.1275 0.1006 0.2500
vt 0.4810 -0.0458 0.2500
vt 0.4905 0.0411 0.2500
vt 0.5095 0.0411 0.2500
vt 0.5190 -0.0458 0.2500
vt 0.8725 0.1006 0.2500
vt 0.8178 0.1688 0.2500
vt 0.8312 0.1822 0.2500
vt 0.8994 0.1275 0.2500
vt 1.0458 0.4810 0.2500
vt 0.9589 0.4905 0.2500
vt 0.9589 0.5095 0.2500
vt 1.0458 0.5190 0.2500
vt 0.8994 0.8725 0.2500
vt 0.8312 0.8178 0.2500
vt 0.8178 0.8312 0.2500
vt 0.8725 0.8994 0.2500
vt 0.5190 1.0458 0.2500
vt 0.5095 0.9589 0.2500
vt 0.5206 0.9502 -0.2500
vt 0.1671 0.8038 -0.2500
vt 0.1962 0.8329 -0.2500
vt 0.0498 0.4794 -0.2500
vt 0.0498 0.5206 -0.2500
vt 0.1962 0.1671 -0.2500
vt 0.1671 0.1962 -0.2500
vt 0.5206 0.0498 -0.2500
vt 0.4794 0.0498 -0.2500
vt 0.8329 0.1962 -0.2500
vt 0.8038 0.1671 -0.2500
vt 0.9502 0.5206 -0.2500
vt 0.9502 0.4794 -0.2500
vt 0.8038 0.8329 -0.2500
vt 0.8329 0.8038 -0.2500
vt 0.4794 0.9502 -0.2500
# 109 texture coords

g Cylinder238
f 1/1/1 2/2/1 3/3/1 
f 3/3/1 4/4/1 1/1/1 
f 5/5/2 6/6/2 2/2/2 
f 2/2/2 1/1/2 5/5/2 
f 7/7/3 8/8/3 6/9/3 
f 6/9/3 5/10/3 7/7/3 
f 9/11/4 10/12/4 8/8/4 
f 8/8/4 7/7/4 9/11/4 
f 11/13/5 12/14/5 10/12/5 
f 10/12/5 9/11/5 11/13/5 
f 13/15/6 14/16/6 12/14/6 
f 12/14/6 11/13/6 13/15/6 
f 15/17/7 16/18/7 14/16/7 
f 14/16/7 13/15/7 15/17/7 
f 4/4/8 3/3/8 16/18/8 
f 16/18/8 15/17/8 4/4/8 
f 17/19/9 18/20/9 19/21/9 
f 19/21/9 20/22/9 21/23/9 
f 21/23/9 22/24/9 23/25/9 
f 19/21/9 21/23/9 23/25/9 
f 17/19/9 19/21/9 23/25/9 
f 24/26/9 17/19/9 23/25/9 
f 25/27/10 26/28/10 27/29/10 
f 27/29/10 28/30/10 29/31/10 
f 29/31/10 30/32/10 31/33/10 
f 27/29/10 29/31/10 31/33/10 
f 25/27/10 27/29/10 31/33/10 
f 32/34/10 25/27/10 31/33/10 
f 33/35/11 34/36/11 35/37/11 
f 35/37/11 36/38/11 33/35/11 
f 37/39/2 33/35/2 36/38/2 
f 36/38/2 38/40/2 37/39/2 
f 39/41/3 37/42/3 38/43/3 
f 38/43/3 40/44/3 39/41/3 
f 41/45/4 39/41/4 40/44/4 
f 40/44/12 42/46/12 41/45/12 
f 43/47/13 41/45/13 42/46/13 
f 42/46/13 44/48/13 43/47/13 
f 45/49/14 43/47/14 44/48/14 
f 44/48/6 46/50/6 45/49/6 
f 47/51/7 45/49/7 46/50/7 
f 46/50/7 48/52/7 47/51/7 
f 34/36/8 47/51/8 48/52/8 
f 48/52/8 35/37/8 34/36/8 
f 49/53/15 50/54/15 51/3/15 
f 51/3/15 52/2/15 49/53/15 
f 53/55/16 49/53/16 52/2/16 
f 52/2/16 54/6/16 53/55/16 
f 55/56/17 53/57/17 54/9/17 
f 54/9/17 56/8/17 55/56/17 
f 57/58/18 55/56/18 56/8/18 
f 56/8/18 58/12/18 57/58/18 
f 59/59/19 57/58/19 58/12/19 
f 58/12/19 60/14/19 59/59/19 
f 61/60/20 59/59/20 60/14/20 
f 60/14/20 62/16/20 61/60/20 
f 63/61/21 61/60/21 62/16/21 
f 62/16/21 64/18/21 63/61/21 
f 50/54/22 63/61/22 64/18/22 
f 64/18/22 51/3/22 50/54/22 
f 65/38/23 66/37/23 50/54/23 
f 50/54/23 49/53/23 65/38/23 
f 67/40/24 65/38/24 49/53/24 
f 49/53/24 53/55/24 67/40/24 
f 68/44/25 67/43/25 53/57/25 
f 53/57/25 55/56/25 68/44/25 
f 69/46/26 68/44/26 55/56/26 
f 55/56/26 57/58/26 69/46/26 
f 70/48/27 69/46/27 57/58/27 
f 57/58/27 59/59/27 70/48/27 
f 71/50/28 70/48/28 59/59/28 
f 59/59/28 61/60/28 71/50/28 
f 72/52/29 71/50/29 61/60/29 
f 61/60/29 63/61/29 72/52/29 
f 66/37/30 72/52/30 63/61/30 
f 63/61/30 50/54/30 66/37/30 
f 73/62/31 74/63/31 75/64/31 
f 75/64/31 76/65/31 73/62/31 
f 76/66/32 75/67/32 77/68/32 
f 77/68/32 78/69/32 76/66/32 
f 78/70/33 77/71/33 79/72/33 
f 79/72/33 80/73/33 78/70/33 
f 80/74/34 79/75/34 81/76/34 
f 81/76/34 82/77/34 80/74/34 
f 82/78/35 81/79/35 83/80/35 
f 83/80/35 84/81/35 82/78/35 
f 84/82/36 83/83/36 85/84/36 
f 85/84/36 86/85/36 84/82/36 
f 86/86/37 85/87/37 87/88/37 
f 87/88/37 88/89/37 86/86/37 
f 88/90/38 87/91/38 74/92/38 
f 74/92/38 73/93/38 88/90/38 
f 32/34/39 73/62/39 76/65/39 
f 76/65/39 25/27/39 32/34/39 
f 25/27/40 76/66/40 78/69/40 
f 78/69/40 26/28/40 25/27/40 
f 26/28/41 78/70/41 80/73/41 
f 80/73/41 27/29/41 26/28/41 
f 27/29/42 80/74/42 82/77/42 
f 82/77/42 28/30/42 27/29/42 
f 28/30/43 82/78/43 84/81/43 
f 84/81/43 29/31/43 28/30/43 
f 29/31/44 84/82/44 86/85/44 
f 86/85/44 30/32/44 29/31/44 
f 30/32/45 86/86/45 88/89/45 
f 88/89/45 31/33/45 30/32/45 
f 31/33/46 88/90/46 73/93/46 
f 73/93/46 32/34/46 31/33/46 
f 89/94/47 23/25/47 22/24/47 
f 22/24/47 90/95/47 89/94/47 
f 90/96/48 22/24/48 21/23/48 
f 21/23/48 91/97/48 90/96/48 
f 91/98/49 21/23/49 20/22/49 
f 20/22/49 92/99/49 91/98/49 
f 92/100/50 20/22/50 19/21/50 
f 19/21/50 93/101/50 92/100/50 
f 93/102/51 19/21/51 18/20/51 
f 18/20/51 94/103/51 93/102/51 
f 94/104/52 18/20/52 17/19/52 
f 17/19/52 95/105/52 94/104/52 
f 95/106/53 17/19/53 24/26/53 
f 24/26/53 96/107/53 95/106/53 
f 96/108/54 24/26/54 23/25/54 
f 23/25/54 89/109/54 96/108/54 
f 89/94/55 90/95/55 1/1/55 
f 1/1/55 4/4/55 89/94/55 
f 90/96/56 91/97/56 5/5/56 
f 5/5/56 1/1/56 90/96/56 
f 91/98/57 92/99/57 7/7/57 
f 7/7/57 5/10/57 91/98/57 
f 92/100/58 93/101/58 9/11/58 
f 9/11/58 7/7/58 92/100/58 
f 93/102/59 94/103/59 11/13/59 
f 11/13/59 9/11/59 93/102/59 
f 94/104/60 95/105/60 13/15/60 
f 13/15/60 11/13/60 94/104/60 
f 95/106/61 96/107/61 15/17/61 
f 15/17/61 13/15/61 95/106/61 
f 96/108/62 89/109/62 4/4/62 
f 4/4/62 15/17/62 96/108/62 
f 52/2/63 51/3/63 3/3/63 
f 3/3/63 2/2/63 52/2/63 
f 51/3/64 64/18/64 16/18/64 
f 16/18/64 3/3/64 51/3/64 
f 64/18/65 62/16/65 14/16/65 
f 14/16/65 16/18/65 64/18/65 
f 62/16/66 60/14/66 12/14/66 
f 12/14/66 14/16/66 62/16/66 
f 60/14/67 58/12/67 10/12/67 
f 10/12/67 12/14/67 60/14/67 
f 58/12/68 56/8/68 8/8/68 
f 8/8/68 10/12/68 58/12/68 
f 56/8/69 54/9/69 6/9/69 
f 6/9/69 8/8/69 56/8/69 
f 54/6/70 52/2/70 2/2/70 
f 2/2/70 6/6/70 54/6/70 
f 75/64/63 74/63/63 34/36/63 
f 34/36/63 33/35/63 75/64/63 
f 74/92/64 87/91/64 47/51/64 
f 47/51/64 34/36/64 74/92/64 
f 87/88/65 85/87/65 45/49/65 
f 45/49/65 47/51/65 87/88/65 
f 85/84/66 83/83/66 43/47/66 
f 43/47/66 45/49/66 85/84/66 
f 83/80/67 81/79/67 41/45/67 
f 41/45/67 43/47/67 83/80/67 
f 81/76/68 79/75/68 39/41/68 
f 39/41/68 41/45/68 81/76/68 
f 79/72/69 77/71/69 37/42/69 
f 37/42/69 39/41/69 79/72/69 
f 77/68/70 75/67/70 33/35/70 
f 33/35/70 37/39/70 77/68/70 
f 66/37/55 65/38/55 36/38/55 
f 36/38/55 35/37/55 66/37/55 
f 65/38/56 67/40/56 38/40/56 
f 38/40/56 36/38/56 65/38/56 
f 67/43/57 68/44/57 40/44/57 
f 40/44/57 38/43/57 67/43/57 
f 68/44/58 69/46/58 42/46/58 
f 42/46/58 40/44/58 68/44/58 
f 69/46/59 70/48/59 44/48/59 
f 44/48/59 42/46/59 69/46/59 
f 70/48/60 71/50/60 46/50/60 
f 46/50/60 44/48/60 70/48/60 
f 71/50/61 72/52/61 48/52/61 
f 48/52/61 46/50/61 71/50/61 
f 72/52/62 66/37/62 35/37/62 
f 35/37/62 48/52/62 72/52/62 
# 188 faces

